solid Visualization Toolkit generated SLA File
 facet normal 0.00024375600663964841 0.00047158263936816975 -0.99999985909640188
  outer loop
   vertex 199.22557067871094 197.98030090332031 403.50262451171875
   vertex 198.05972290039062 198.71234130859375 403.502685546875
   vertex 199.15370178222656 198.79400634765625 403.50299072265625
  endloop
 endfacet
 facet normal -2.6871506340974971e-05 -9.7598746374858803e-07 -0.99999999963848485
  outer loop
   vertex 200.37631225585938 197.56576538085938 403.50259399414062
   vertex 199.22557067871094 197.98030090332031 403.50262451171875
   vertex 200.32534790039062 198.96894836425781 403.50259399414062
  endloop
 endfacet
 facet normal -0.00040052454469786215 0.0004146778443554153 -0.99999983381117341
  outer loop
   vertex 200.32534790039062 198.96894836425781 403.50259399414062
   vertex 199.22557067871094 197.98030090332031 403.50262451171875
   vertex 199.15370178222656 198.79400634765625 403.50299072265625
  endloop
 endfacet
 facet normal -0.00044105248384268569 -1.6019261801830927e-05 -0.99999990260804017
  outer loop
   vertex 200.32534790039062 198.96894836425781 403.50259399414062
   vertex 201.81776428222656 197.88494873046875 403.501953125
   vertex 200.37631225585938 197.56576538085938 403.50259399414062
  endloop
 endfacet
 facet normal -0.00026725655412421196 -0.00032258993704046895 -0.99999991225482954
  outer loop
   vertex 196.80784606933594 199.37107849121094 403.5028076171875
   vertex 197.98023986816406 200.10261535644531 403.50225830078125
   vertex 198.05972290039062 198.71234130859375 403.502685546875
  endloop
 endfacet
 facet normal 0.00027784027220426359 1.4992696209889909e-05 -0.99999996129000035
  outer loop
   vertex 199.15370178222656 198.79400634765625 403.50299072265625
   vertex 198.05972290039062 198.71234130859375 403.502685546875
   vertex 199.00486755371094 199.51666259765625 403.50296020507812
  endloop
 endfacet
 facet normal 0.00052650564168380193 -0.00027720991686937355 -0.99999982297321999
  outer loop
   vertex 199.00486755371094 199.51666259765625 403.50296020507812
   vertex 198.05972290039062 198.71234130859375 403.502685546875
   vertex 197.98023986816406 200.10261535644531 403.50225830078125
  endloop
 endfacet
 facet normal -0.00032238835268002749 -0.00010862702441526403 -0.99999994213295818
  outer loop
   vertex 199.00486755371094 199.51666259765625 403.50296020507812
   vertex 200.32534790039062 198.96894836425781 403.50259399414062
   vertex 199.15370178222656 198.79400634765625 403.50299072265625
  endloop
 endfacet
 facet normal 0 2.0322518362279329e-05 -0.99999999979349774
  outer loop
   vertex 188.98631286621094 194.99452209472656 403.50137329101562
   vertex 187.48356628417969 194.99452209472656 403.50137329101562
   vertex 188.98625183105469 196.49618530273438 403.50140380859375
  endloop
 endfacet
 facet normal 2.0308692116039366e-05 0 -0.9999999997937784
  outer loop
   vertex 188.98625183105469 196.49618530273438 403.50140380859375
   vertex 187.48356628417969 194.99452209472656 403.50137329101562
   vertex 187.48356628417969 196.49726867675781 403.50137329101562
  endloop
 endfacet
 facet normal -2.0321898720974205e-05 2.0321692373763277e-05 -0.99999999958702457
  outer loop
   vertex 190.48904418945312 196.49726867675781 403.50137329101562
   vertex 188.98631286621094 194.99452209472656 403.50137329101562
   vertex 188.98625183105469 196.49618530273438 403.50140380859375
  endloop
 endfacet
 facet normal -9.430107105026008e-05 -9.430107105026008e-05 -0.99999999110730797
  outer loop
   vertex 202.51095581054688 194.99452209472656 403.50137329101562
   vertex 201.00820922851562 196.49726867675781 403.50137329101562
   vertex 202.67266845703125 196.77452087402344 403.50119018554688
  endloop
 endfacet
 facet normal 0 0 -1
  outer loop
   vertex 204.01368713378906 194.99452209472656 403.50137329101562
   vertex 202.51095581054688 194.99452209472656 403.50137329101562
   vertex 204.01368713378906 196.49726867675781 403.50137329101562
  endloop
 endfacet
 facet normal 0.00011314903325654966 -0.00011314788434877525 -0.99999998719742611
  outer loop
   vertex 204.01368713378906 196.49726867675781 403.50137329101562
   vertex 202.51095581054688 194.99452209472656 403.50137329101562
   vertex 202.67266845703125 196.77452087402344 403.50119018554688
  endloop
 endfacet
 facet normal 0 0 -1
  outer loop
   vertex 204.01368713378906 196.49726867675781 403.50137329101562
   vertex 205.51643371582031 194.99452209472656 403.50137329101562
   vertex 204.01368713378906 194.99452209472656 403.50137329101562
  endloop
 endfacet
 facet normal 2.0294060786248365e-05 -2.0294266852887138e-05 -0.999999999588147
  outer loop
   vertex 187.48356628417969 196.49726867675781 403.50137329101562
   vertex 188.98631286621094 198 403.50137329101562
   vertex 188.98625183105469 196.49618530273438 403.50140380859375
  endloop
 endfacet
 facet normal -2.0218990014227423e-05 -0.00012242697283961648 -0.99999999230141445
  outer loop
   vertex 190.48904418945312 196.49726867675781 403.50137329101562
   vertex 188.98625183105469 196.49618530273438 403.50140380859375
   vertex 190.48956298828125 197.99281311035156 403.50119018554688
  endloop
 endfacet
 facet normal -0.00012190338509779748 -2.028849535470453e-05 -0.99999999236397075
  outer loop
   vertex 190.48956298828125 197.99281311035156 403.50119018554688
   vertex 188.98625183105469 196.49618530273438 403.50140380859375
   vertex 188.98631286621094 198 403.50137329101562
  endloop
 endfacet
 facet normal 0 0.00010439285060872163 -0.99999999455106625
  outer loop
   vertex 191.99179077148438 196.49726867675781 403.50137329101562
   vertex 190.48904418945312 196.49726867675781 403.50137329101562
   vertex 191.99472045898438 197.95893859863281 403.50152587890625
  endloop
 endfacet
 facet normal 0.00022027154988653823 -0.00012251039517126495 -0.99999996823582327
  outer loop
   vertex 191.99472045898438 197.95893859863281 403.50152587890625
   vertex 190.48904418945312 196.49726867675781 403.50137329101562
   vertex 190.48956298828125 197.99281311035156 403.50119018554688
  endloop
 endfacet
 facet normal 0 0.00027069703497267507 -0.99999996336155705
  outer loop
   vertex 193.49452209472656 196.49726867675781 403.50137329101562
   vertex 191.99179077148438 196.49726867675781 403.50137329101562
   vertex 193.48123168945312 197.85011291503906 403.50173950195312
  endloop
 endfacet
 facet normal 0.00015132792380821532 0.00010408953639087776 -0.99999998313261396
  outer loop
   vertex 193.48123168945312 197.85011291503906 403.50173950195312
   vertex 191.99179077148438 196.49726867675781 403.50137329101562
   vertex 191.99472045898438 197.95893859863281 403.50152587890625
  endloop
 endfacet
 facet normal 0 5.656988493119258e-05 -0.99999999839992404
  outer loop
   vertex 194.99726867675781 196.49726867675781 403.50137329101562
   vertex 193.49452209472656 196.49726867675781 403.50137329101562
   vertex 194.69464111328125 197.57620239257812 403.50143432617188
  endloop
 endfacet
 facet normal -0.00019081974631544895 0.00026882240804000965 -0.99999994566116723
  outer loop
   vertex 194.69464111328125 197.57620239257812 403.50143432617188
   vertex 193.49452209472656 196.49726867675781 403.50137329101562
   vertex 193.48123168945312 197.85011291503906 403.50173950195312
  endloop
 endfacet
 facet normal 0 0.00052995333384400225 -0.99999985957472215
  outer loop
   vertex 196.5 196.49726867675781 403.50137329101562
   vertex 194.99726867675781 196.49726867675781 403.50137329101562
   vertex 196.31178283691406 197.87931823730469 403.50210571289062
  endloop
 endfacet
 facet normal 0.00038435791946594988 0.00016437752290749704 -0.99999991262450594
  outer loop
   vertex 196.31178283691406 197.87931823730469 403.50210571289062
   vertex 194.99726867675781 196.49726867675781 403.50137329101562
   vertex 194.69464111328125 197.57620239257812 403.50143432617188
  endloop
 endfacet
 facet normal 0 0.00039643922354119896 -0.99999992141796801
  outer loop
   vertex 198.00273132324219 196.49726867675781 403.50137329101562
   vertex 196.5 196.49726867675781 403.50137329101562
   vertex 197.93437194824219 197.34403991699219 403.501708984375
  endloop
 endfacet
 facet normal -7.2953845231850877e-05 0.00052001797095503979 -0.99999986212951375
  outer loop
   vertex 197.93437194824219 197.34403991699219 403.501708984375
   vertex 196.5 196.49726867675781 403.50137329101562
   vertex 196.31178283691406 197.87931823730469 403.50210571289062
  endloop
 endfacet
 facet normal 0.00026835062233807673 0.00089433891750495423 -0.9999995640728272
  outer loop
   vertex 199.22557067871094 197.98030090332031 403.50262451171875
   vertex 199.50547790527344 196.49726867675781 403.50137329101562
   vertex 197.93437194824219 197.34403991699219 403.501708984375
  endloop
 endfacet
 facet normal 0 0.00039643922354119896 -0.9999999214179679
  outer loop
   vertex 199.50547790527344 196.49726867675781 403.50137329101562
   vertex 198.00273132324219 196.49726867675781 403.50137329101562
   vertex 197.93437194824219 197.34403991699219 403.501708984375
  endloop
 endfacet
 facet normal 0.00029764236870225903 0.0008998674250866235 -0.99999955082371805
  outer loop
   vertex 200.37631225585938 197.56576538085938 403.50259399414062
   vertex 199.50547790527344 196.49726867675781 403.50137329101562
   vertex 199.22557067871094 197.98030090332031 403.50262451171875
  endloop
 endfacet
 facet normal 0 0.0011424483797565291 -0.99999934740563678
  outer loop
   vertex 201.00820922851562 196.49726867675781 403.50137329101562
   vertex 199.50547790527344 196.49726867675781 403.50137329101562
   vertex 200.37631225585938 197.56576538085938 403.50259399414062
  endloop
 endfacet
 facet normal -0.00061680227495860944 0.00077767861164215052 -0.99999950738534404
  outer loop
   vertex 201.81776428222656 197.88494873046875 403.501953125
   vertex 201.00820922851562 196.49726867675781 403.50137329101562
   vertex 200.37631225585938 197.56576538085938 403.50259399414062
  endloop
 endfacet
 facet normal -0.00019894249263933042 0.00053390461914568771 -0.99999983768385792
  outer loop
   vertex 202.67266845703125 196.77452087402344 403.50119018554688
   vertex 201.00820922851562 196.49726867675781 403.50137329101562
   vertex 201.81776428222656 197.88494873046875 403.501953125
  endloop
 endfacet
 facet normal -0.00028841414739045072 0.00046502154753082399 -0.99999985028610872
  outer loop
   vertex 201.81776428222656 197.88494873046875 403.501953125
   vertex 204.01368713378906 198 403.50137329101562
   vertex 202.67266845703125 196.77452087402344 403.50119018554688
  endloop
 endfacet
 facet normal 0.00013654207075311574 0 -0.99999999067813128
  outer loop
   vertex 204.01368713378906 198 403.50137329101562
   vertex 204.01368713378906 196.49726867675781 403.50137329101562
   vertex 202.67266845703125 196.77452087402344 403.50119018554688
  endloop
 endfacet
 facet normal -0.00012122681359001815 0.00012122681359001815 -0.99999998530405965
  outer loop
   vertex 188.98631286621094 198 403.50137329101562
   vertex 190.48904418945312 199.50273132324219 403.50137329101562
   vertex 190.48956298828125 197.99281311035156 403.50119018554688
  endloop
 endfacet
 facet normal 0.00022081370689718783 -9.8420577184347947e-05 -0.99999997077734792
  outer loop
   vertex 191.99472045898438 197.95893859863281 403.50152587890625
   vertex 190.48956298828125 197.99281311035156 403.50119018554688
   vertex 191.99179077148438 199.50273132324219 403.50137329101562
  endloop
 endfacet
 facet normal 0 0.00012126846728544327 -0.99999999264697947
  outer loop
   vertex 191.99179077148438 199.50273132324219 403.50137329101562
   vertex 190.48956298828125 197.99281311035156 403.50119018554688
   vertex 190.48904418945312 199.50273132324219 403.50137329101562
  endloop
 endfacet
 facet normal 0.00014199052592112109 -2.3455246744836739e-05 -0.99999998964427084
  outer loop
   vertex 193.48123168945312 197.85011291503906 403.50173950195312
   vertex 191.99472045898438 197.95893859863281 403.50152587890625
   vertex 193.52450561523438 199.41317749023438 403.501708984375
  endloop
 endfacet
 facet normal 0.00021326741175646337 -9.843489810703011e-05 -0.99999997241379057
  outer loop
   vertex 193.52450561523438 199.41317749023438 403.501708984375
   vertex 191.99472045898438 197.95893859863281 403.50152587890625
   vertex 191.99179077148438 199.50273132324219 403.50137329101562
  endloop
 endfacet
 facet normal -0.00015352916240649725 0.0004340177052913315 -0.99999989402870826
  outer loop
   vertex 194.69464111328125 197.57620239257812 403.50143432617188
   vertex 193.48123168945312 197.85011291503906 403.50173950195312
   vertex 195.18806457519531 199.15702819824219 403.50204467773438
  endloop
 endfacet
 facet normal 0.00019794220130940827 -2.5004285981697551e-05 -0.99999998009683522
  outer loop
   vertex 195.18806457519531 199.15702819824219 403.50204467773438
   vertex 193.48123168945312 197.85011291503906 403.50173950195312
   vertex 193.52450561523438 199.41317749023438 403.501708984375
  endloop
 endfacet
 facet normal 0.00042762708390349692 0.00032831959430002064 -0.99999985467065
  outer loop
   vertex 196.80784606933594 199.37107849121094 403.5028076171875
   vertex 196.31178283691406 197.87931823730469 403.50210571289062
   vertex 195.18806457519531 199.15702819824219 403.50204467773438
  endloop
 endfacet
 facet normal 0.00036410093978028545 0.00027244972321075828 -0.99999989660082156
  outer loop
   vertex 196.31178283691406 197.87931823730469 403.50210571289062
   vertex 194.69464111328125 197.57620239257812 403.50143432617188
   vertex 195.18806457519531 199.15702819824219 403.50204467773438
  endloop
 endfacet
 facet normal 0.00012772817451992262 0.0004280466476103008 -0.99999990023078544
  outer loop
   vertex 198.05972290039062 198.71234130859375 403.502685546875
   vertex 196.31178283691406 197.87931823730469 403.50210571289062
   vertex 196.80784606933594 199.37107849121094 403.5028076171875
  endloop
 endfacet
 facet normal -8.792699060759493e-06 0.00071450955899259494 -0.99999974469935671
  outer loop
   vertex 197.93437194824219 197.34403991699219 403.501708984375
   vertex 196.31178283691406 197.87931823730469 403.50210571289062
   vertex 198.05972290039062 198.71234130859375 403.502685546875
  endloop
 endfacet
 facet normal 0.00037425673487903003 0.00067941812663007643 -0.99999969916140752
  outer loop
   vertex 199.22557067871094 197.98030090332031 403.50262451171875
   vertex 197.93437194824219 197.34403991699219 403.501708984375
   vertex 198.05972290039062 198.71234130859375 403.502685546875
  endloop
 endfacet
 facet normal -0.00052603246499682214 -0.00013301703926496048 -0.99999985279814574
  outer loop
   vertex 201.81776428222656 197.88494873046875 403.501953125
   vertex 200.32534790039062 198.96894836425781 403.50259399414062
   vertex 202.51095581054688 199.50273132324219 403.50137329101562
  endloop
 endfacet
 facet normal -0.00025090456123248402 -0.00025090456123248402 -0.99999993704689916
  outer loop
   vertex 201.81776428222656 197.88494873046875 403.501953125
   vertex 202.51095581054688 199.50273132324219 403.50137329101562
   vertex 204.01368713378906 198 403.50137329101562
  endloop
 endfacet
 facet normal 0.00020692844408288659 -0.00020692634294519841 -0.99999995718105283
  outer loop
   vertex 191.99179077148438 199.50273132324219 403.50137329101562
   vertex 193.49452209472656 201.00547790527344 403.50137329101562
   vertex 193.52450561523438 199.41317749023438 403.501708984375
  endloop
 endfacet
 facet normal 0.00014822119552762542 -0.00034791678243997884 -0.99999992849219244
  outer loop
   vertex 195.18806457519531 199.15702819824219 403.50204467773438
   vertex 193.52450561523438 199.41317749023438 403.501708984375
   vertex 194.99726867675781 201.00547790527344 403.50137329101562
  endloop
 endfacet
 facet normal 0 -0.00021082287534705148 -0.99999997777685745
  outer loop
   vertex 194.99726867675781 201.00547790527344 403.50137329101562
   vertex 193.52450561523438 199.41317749023438 403.501708984375
   vertex 193.49452209472656 201.00547790527344 403.50137329101562
  endloop
 endfacet
 facet normal 0.00057272891625068166 -0.00076970975103136388 -0.9999995397641378
  outer loop
   vertex 196.80784606933594 199.37107849121094 403.5028076171875
   vertex 195.18806457519531 199.15702819824219 403.50204467773438
   vertex 196.5 201.00547790527344 403.50137329101562
  endloop
 endfacet
 facet normal 0 -0.00036321608962877242 -0.99999993403703391
  outer loop
   vertex 195.18806457519531 199.15702819824219 403.50204467773438
   vertex 194.99726867675781 201.00547790527344 403.50137329101562
   vertex 196.5 201.00547790527344 403.50137329101562
  endloop
 endfacet
 facet normal 7.0730735438589919e-05 -0.00086426331382745078 -0.99999962402297304
  outer loop
   vertex 196.80784606933594 199.37107849121094 403.5028076171875
   vertex 196.5 201.00547790527344 403.50137329101562
   vertex 197.98023986816406 200.10261535644531 403.50225830078125
  endloop
 endfacet
 facet normal -0.001003339552219735 -0.0010033293643765095 -0.99999899331945796
  outer loop
   vertex 200.32534790039062 198.96894836425781 403.50259399414062
   vertex 199.50547790527344 201.00547790527344 403.50137329101562
   vertex 201.00820922851562 199.50273132324219 403.50137329101562
  endloop
 endfacet
 facet normal -0.00063138612926002624 -0.00085358790269302813 -0.99999943636946531
  outer loop
   vertex 199.00486755371094 199.51666259765625 403.50296020507812
   vertex 199.50547790527344 201.00547790527344 403.50137329101562
   vertex 200.32534790039062 198.96894836425781 403.50259399414062
  endloop
 endfacet
 facet normal 0 -0.002286884420733873 -0.99999738507640423
  outer loop
   vertex 202.51095581054688 199.50273132324219 403.50137329101562
   vertex 200.32534790039062 198.96894836425781 403.50259399414062
   vertex 201.00820922851562 199.50273132324219 403.50137329101562
  endloop
 endfacet
 facet normal 0 -0.00098022599519260209 -0.99999951957838384
  outer loop
   vertex 197.98023986816406 200.10261535644531 403.50225830078125
   vertex 196.5 201.00547790527344 403.50137329101562
   vertex 198.00273132324219 201.00547790527344 403.50137329101562
  endloop
 endfacet
 facet normal 6.3309954677995972e-05 -0.0010871776585559233 -0.99999940701811829
  outer loop
   vertex 199.00486755371094 199.51666259765625 403.50296020507812
   vertex 197.98023986816406 200.10261535644531 403.50225830078125
   vertex 199.50547790527344 201.00547790527344 403.50137329101562
  endloop
 endfacet
 facet normal 0 -0.00098022599519260187 -0.99999951957838373
  outer loop
   vertex 197.98023986816406 200.10261535644531 403.50225830078125
   vertex 198.00273132324219 201.00547790527344 403.50137329101562
   vertex 199.50547790527344 201.00547790527344 403.50137329101562
  endloop
 endfacet
endsolid
